<svg width="30" height="31" viewBox="0 0 30 31" fill="none" xmlns="http://www.w3.org/2000/svg">
<path d="M16.25 9.87594L12.5 13.6259L17.5 16.1259L13.75 19.8759M25 15.5009C25 21.6365 18.3075 26.0989 15.8725 27.5195C15.5957 27.681 15.4574 27.7617 15.2621 27.8036C15.1106 27.8361 14.8894 27.8361 14.7379 27.8036C14.5426 27.7617 14.4043 27.681 14.1275 27.5195C11.6925 26.0989 5 21.6365 5 15.5009V9.52294C5 8.52355 5 8.02385 5.16345 7.59432C5.30784 7.21486 5.54248 6.87628 5.84707 6.60785C6.19187 6.30399 6.65975 6.12853 7.59551 5.77762L14.2978 3.26428C14.5576 3.16683 14.6876 3.1181 14.8212 3.09879C14.9398 3.08165 15.0602 3.08165 15.1788 3.09879C15.3124 3.1181 15.4424 3.16683 15.7022 3.26428L22.4045 5.77762C23.3403 6.12853 23.8081 6.30399 24.1529 6.60785C24.4575 6.87628 24.6922 7.21486 24.8365 7.59432C25 8.02385 25 8.52355 25 9.52294V15.5009Z" stroke="white" stroke-width="2.5" stroke-linecap="round" stroke-linejoin="round"/>
</svg>
